<svg viewBox="0 0 72 72" xmlns="http://www.w3.org/2000/svg"><path d="m51.0577 42.483.0966-.3192c.9466-3.1267.787-7.2348-.3992-10.2787l5.8871-8.2718-10.4398.7617.8096-11.0954-9.2068 6.2396-4.8557-10.005-4.8554 10.0049-9.2064-6.2399.8095 11.0952-11.0954-.8096 6.2396 9.2068-10.005 4.8557 10.0049 4.8554-6.2399 9.2064 11.0952-.8095-.8096 11.0954 9.2068-6.2396z" fill="#fcea2b"/><path d="m34.791 46.6066c-.0241.2749-.2468.4973-.5226.5268-3.3432.3581-5.9145 3.65-5.9145 7.6568 0 4.2461 2.9447 7.6882 6.5771 7.6882h25.0744c3.9908 0 7.2259-3.6376 7.2259-8.1248 0-4.3002-2.9712-7.8202-6.7312-8.106-.2877-.0219-.521-.2232-.5758-.505-.84-4.3132-4.7148-7.5546-9.2958-7.5546-2.9773 0-5.6294 1.3479-7.3517 3.4921-.1683.2095-.4507.3055-.6992.2013-.6627-.2779-1.3626-.4124-2.1458-.4124-2.9594.0002-5.3886 2.2587-5.6408 5.1376z" fill="#fff"/><g style="fill:none;stroke:#000;stroke-linecap:round;stroke-linejoin:round;stroke-miterlimit:10;stroke-width:2"><path d="m24.4645 53.5202c-6.1162-2.9451-10.3373-9.202-10.3373-16.4446 0-10.0744 8.1669-18.2414 18.2414-18.2414 9.0895 0 16.6262 6.648 18.013 15.347"/><path d="m24.5472 56.9821-5.9844 4.0428.7948-10.8929-10.8927.7947 6.126-9.0383-9.8223-4.7669 9.8224-4.767-6.1257-9.0388 10.8929.7948-.7947-10.8927 9.0383 6.126 4.7668-9.8223 4.7671 9.8224 9.0388-6.1257-.7948 10.8928 10.8927-.7946-6.126 9.0383"/><path d="m34.791 46.6066c-.0241.2749-.2468.4973-.5226.5268-3.3432.3581-5.9145 3.65-5.9145 7.6568 0 4.2461 2.9447 7.6882 6.5771 7.6882h25.0744c3.9908 0 7.2259-3.6376 7.2259-8.1248 0-4.3002-2.9712-7.8202-6.7312-8.106-.2877-.0219-.521-.2232-.5758-.505-.84-4.3132-4.7148-7.5546-9.2958-7.5546-2.9773 0-5.6294 1.3479-7.3517 3.4921-.1683.2095-.4507.3055-.6992.2013-.6627-.2779-1.3626-.4124-2.1458-.4124-2.9594.0002-5.3886 2.2587-5.6408 5.1376z"/></g></svg>